<mxfile host="Electron" modified="2023-12-10T22:43:33.065Z" agent="Mozilla/5.0 (Windows NT 10.0; Win64; x64) AppleWebKit/537.36 (KHTML, like Gecko) draw.io/22.1.2 Chrome/114.0.5735.289 Electron/25.9.4 Safari/537.36" etag="9YXteFjXiw5MbHSX9ZLa" version="22.1.2" type="device">
  <diagram id="C5RBs43oDa-KdzZeNtuy" name="Page-1">
    <mxGraphModel dx="1581" dy="1160" grid="0" gridSize="10" guides="1" tooltips="1" connect="1" arrows="1" fold="1" page="1" pageScale="1" pageWidth="827" pageHeight="1169" math="0" shadow="0">
      <root>
        <mxCell id="WIyWlLk6GJQsqaUBKTNV-0" />
        <mxCell id="WIyWlLk6GJQsqaUBKTNV-1" parent="WIyWlLk6GJQsqaUBKTNV-0" />
        <mxCell id="2DCBrfgeh82kFmzNfcht-12" style="edgeStyle=orthogonalEdgeStyle;rounded=0;orthogonalLoop=1;jettySize=auto;html=1;entryX=0.5;entryY=1;entryDx=0;entryDy=0;" parent="WIyWlLk6GJQsqaUBKTNV-1" source="2DCBrfgeh82kFmzNfcht-5" target="2DCBrfgeh82kFmzNfcht-8" edge="1">
          <mxGeometry relative="1" as="geometry">
            <Array as="points">
              <mxPoint x="420" y="160" />
              <mxPoint x="260" y="160" />
            </Array>
          </mxGeometry>
        </mxCell>
        <mxCell id="2DCBrfgeh82kFmzNfcht-17" value="" style="edgeStyle=orthogonalEdgeStyle;rounded=0;orthogonalLoop=1;jettySize=auto;html=1;" parent="WIyWlLk6GJQsqaUBKTNV-1" source="2DCBrfgeh82kFmzNfcht-5" target="2DCBrfgeh82kFmzNfcht-16" edge="1">
          <mxGeometry relative="1" as="geometry" />
        </mxCell>
        <mxCell id="2DCBrfgeh82kFmzNfcht-5" value="Is Input Valid?" style="strokeWidth=2;html=1;shape=mxgraph.flowchart.decision;whiteSpace=wrap;" parent="WIyWlLk6GJQsqaUBKTNV-1" vertex="1">
          <mxGeometry x="360" y="20" width="120" height="120" as="geometry" />
        </mxCell>
        <mxCell id="2DCBrfgeh82kFmzNfcht-9" value="" style="edgeStyle=orthogonalEdgeStyle;rounded=0;orthogonalLoop=1;jettySize=auto;html=1;" parent="WIyWlLk6GJQsqaUBKTNV-1" source="2DCBrfgeh82kFmzNfcht-6" target="2DCBrfgeh82kFmzNfcht-8" edge="1">
          <mxGeometry relative="1" as="geometry" />
        </mxCell>
        <mxCell id="2DCBrfgeh82kFmzNfcht-6" value="START GAME" style="strokeWidth=2;html=1;shape=mxgraph.flowchart.start_1;whiteSpace=wrap;" parent="WIyWlLk6GJQsqaUBKTNV-1" vertex="1">
          <mxGeometry x="44" y="40" width="120" height="80" as="geometry" />
        </mxCell>
        <mxCell id="2DCBrfgeh82kFmzNfcht-24" value="" style="edgeStyle=orthogonalEdgeStyle;rounded=0;orthogonalLoop=1;jettySize=auto;html=1;" parent="WIyWlLk6GJQsqaUBKTNV-1" source="2DCBrfgeh82kFmzNfcht-7" target="2DCBrfgeh82kFmzNfcht-23" edge="1">
          <mxGeometry relative="1" as="geometry" />
        </mxCell>
        <mxCell id="2DCBrfgeh82kFmzNfcht-7" value="Print Board Status" style="strokeWidth=2;html=1;shape=mxgraph.flowchart.display;whiteSpace=wrap;direction=west;" parent="WIyWlLk6GJQsqaUBKTNV-1" vertex="1">
          <mxGeometry x="320" y="225" width="120" height="80" as="geometry" />
        </mxCell>
        <mxCell id="2DCBrfgeh82kFmzNfcht-11" value="" style="edgeStyle=orthogonalEdgeStyle;rounded=0;orthogonalLoop=1;jettySize=auto;html=1;" parent="WIyWlLk6GJQsqaUBKTNV-1" source="2DCBrfgeh82kFmzNfcht-8" target="2DCBrfgeh82kFmzNfcht-5" edge="1">
          <mxGeometry relative="1" as="geometry" />
        </mxCell>
        <mxCell id="2DCBrfgeh82kFmzNfcht-8" value="&lt;span style=&quot;color: rgb(0, 0, 0); font-family: Helvetica; font-size: 12px; font-style: normal; font-variant-ligatures: normal; font-variant-caps: normal; font-weight: 400; letter-spacing: normal; orphans: 2; text-align: center; text-indent: 0px; text-transform: none; widows: 2; word-spacing: 0px; -webkit-text-stroke-width: 0px; background-color: rgb(251, 251, 251); text-decoration-thickness: initial; text-decoration-style: initial; text-decoration-color: initial; float: none; display: inline !important;&quot;&gt;Get Input:&lt;/span&gt;&lt;br style=&quot;border-color: var(--border-color); color: rgb(0, 0, 0); font-family: Helvetica; font-size: 12px; font-style: normal; font-variant-ligatures: normal; font-variant-caps: normal; font-weight: 400; letter-spacing: normal; orphans: 2; text-align: center; text-indent: 0px; text-transform: none; widows: 2; word-spacing: 0px; -webkit-text-stroke-width: 0px; background-color: rgb(251, 251, 251); text-decoration-thickness: initial; text-decoration-style: initial; text-decoration-color: initial;&quot;&gt;&lt;span style=&quot;color: rgb(0, 0, 0); font-family: Helvetica; font-size: 12px; font-style: normal; font-variant-ligatures: normal; font-variant-caps: normal; font-weight: 400; letter-spacing: normal; orphans: 2; text-align: center; text-indent: 0px; text-transform: none; widows: 2; word-spacing: 0px; -webkit-text-stroke-width: 0px; background-color: rgb(251, 251, 251); text-decoration-thickness: initial; text-decoration-style: initial; text-decoration-color: initial; float: none; display: inline !important;&quot;&gt;Cell X &amp;amp; Y&lt;/span&gt;" style="shape=parallelogram;html=1;strokeWidth=2;perimeter=parallelogramPerimeter;whiteSpace=wrap;rounded=1;arcSize=12;size=0.23;" parent="WIyWlLk6GJQsqaUBKTNV-1" vertex="1">
          <mxGeometry x="180" y="40" width="160" height="80" as="geometry" />
        </mxCell>
        <mxCell id="2DCBrfgeh82kFmzNfcht-10" value="" style="rounded=1;whiteSpace=wrap;html=1;absoluteArcSize=1;arcSize=14;strokeWidth=2;align=center;" parent="WIyWlLk6GJQsqaUBKTNV-1" vertex="1">
          <mxGeometry x="480" y="160" width="280" height="200" as="geometry" />
        </mxCell>
        <mxCell id="2DCBrfgeh82kFmzNfcht-13" value="No" style="text;html=1;align=center;verticalAlign=middle;resizable=0;points=[];autosize=1;strokeColor=none;fillColor=none;" parent="WIyWlLk6GJQsqaUBKTNV-1" vertex="1">
          <mxGeometry x="380" y="130" width="40" height="30" as="geometry" />
        </mxCell>
        <mxCell id="2DCBrfgeh82kFmzNfcht-15" value="Yes" style="text;html=1;align=center;verticalAlign=middle;resizable=0;points=[];autosize=1;strokeColor=none;fillColor=none;" parent="WIyWlLk6GJQsqaUBKTNV-1" vertex="1">
          <mxGeometry x="480" y="50" width="40" height="30" as="geometry" />
        </mxCell>
        <mxCell id="2DCBrfgeh82kFmzNfcht-19" value="" style="edgeStyle=orthogonalEdgeStyle;rounded=0;orthogonalLoop=1;jettySize=auto;html=1;" parent="WIyWlLk6GJQsqaUBKTNV-1" source="2DCBrfgeh82kFmzNfcht-16" target="2DCBrfgeh82kFmzNfcht-18" edge="1">
          <mxGeometry relative="1" as="geometry" />
        </mxCell>
        <mxCell id="2DCBrfgeh82kFmzNfcht-16" value="Is Cell a Bomb?" style="strokeWidth=2;html=1;shape=mxgraph.flowchart.decision;whiteSpace=wrap;" parent="WIyWlLk6GJQsqaUBKTNV-1" vertex="1">
          <mxGeometry x="530" y="30" width="100" height="100" as="geometry" />
        </mxCell>
        <mxCell id="2DCBrfgeh82kFmzNfcht-18" value="END GAME:&lt;br&gt;LOSE" style="strokeWidth=2;html=1;shape=mxgraph.flowchart.start_1;whiteSpace=wrap;" parent="WIyWlLk6GJQsqaUBKTNV-1" vertex="1">
          <mxGeometry x="680" y="40" width="120" height="80" as="geometry" />
        </mxCell>
        <mxCell id="2DCBrfgeh82kFmzNfcht-25" value="" style="edgeStyle=orthogonalEdgeStyle;rounded=0;orthogonalLoop=1;jettySize=auto;html=1;entryX=0.25;entryY=1;entryDx=0;entryDy=0;" parent="WIyWlLk6GJQsqaUBKTNV-1" source="2DCBrfgeh82kFmzNfcht-23" target="2DCBrfgeh82kFmzNfcht-8" edge="1">
          <mxGeometry relative="1" as="geometry" />
        </mxCell>
        <mxCell id="2DCBrfgeh82kFmzNfcht-27" style="edgeStyle=orthogonalEdgeStyle;rounded=0;orthogonalLoop=1;jettySize=auto;html=1;entryX=0;entryY=0.5;entryDx=0;entryDy=0;entryPerimeter=0;" parent="WIyWlLk6GJQsqaUBKTNV-1" source="2DCBrfgeh82kFmzNfcht-23" target="2DCBrfgeh82kFmzNfcht-26" edge="1">
          <mxGeometry relative="1" as="geometry" />
        </mxCell>
        <mxCell id="2DCBrfgeh82kFmzNfcht-23" value="Have all non-live Cells&lt;br&gt;been revealed?" style="strokeWidth=2;html=1;shape=mxgraph.flowchart.decision;whiteSpace=wrap;" parent="WIyWlLk6GJQsqaUBKTNV-1" vertex="1">
          <mxGeometry x="140" y="185" width="160" height="160" as="geometry" />
        </mxCell>
        <mxCell id="2DCBrfgeh82kFmzNfcht-26" value="END GAME:&lt;br&gt;WIN" style="strokeWidth=2;html=1;shape=mxgraph.flowchart.start_1;whiteSpace=wrap;" parent="WIyWlLk6GJQsqaUBKTNV-1" vertex="1">
          <mxGeometry x="280" y="360" width="120" height="80" as="geometry" />
        </mxCell>
        <mxCell id="2DCBrfgeh82kFmzNfcht-28" value="Yes" style="text;html=1;align=center;verticalAlign=middle;resizable=0;points=[];autosize=1;strokeColor=none;fillColor=none;" parent="WIyWlLk6GJQsqaUBKTNV-1" vertex="1">
          <mxGeometry x="620" y="50" width="40" height="30" as="geometry" />
        </mxCell>
        <mxCell id="2DCBrfgeh82kFmzNfcht-29" value="Yes" style="text;html=1;align=center;verticalAlign=middle;resizable=0;points=[];autosize=1;strokeColor=none;fillColor=none;" parent="WIyWlLk6GJQsqaUBKTNV-1" vertex="1">
          <mxGeometry x="180" y="340" width="40" height="30" as="geometry" />
        </mxCell>
        <mxCell id="2DCBrfgeh82kFmzNfcht-30" value="No" style="text;html=1;align=center;verticalAlign=middle;resizable=0;points=[];autosize=1;strokeColor=none;fillColor=none;" parent="WIyWlLk6GJQsqaUBKTNV-1" vertex="1">
          <mxGeometry x="540" y="120" width="40" height="30" as="geometry" />
        </mxCell>
        <mxCell id="2DCBrfgeh82kFmzNfcht-31" value="No" style="text;html=1;align=center;verticalAlign=middle;resizable=0;points=[];autosize=1;strokeColor=none;fillColor=none;" parent="WIyWlLk6GJQsqaUBKTNV-1" vertex="1">
          <mxGeometry x="180" y="160" width="40" height="30" as="geometry" />
        </mxCell>
        <mxCell id="mCdKOWrKnVORWBAdiH5B-8" style="edgeStyle=orthogonalEdgeStyle;rounded=0;orthogonalLoop=1;jettySize=auto;html=1;entryX=1;entryY=0.75;entryDx=0;entryDy=0;exitX=0.5;exitY=1;exitDx=0;exitDy=0;exitPerimeter=0;" parent="WIyWlLk6GJQsqaUBKTNV-1" source="mCdKOWrKnVORWBAdiH5B-3" target="mCdKOWrKnVORWBAdiH5B-7" edge="1">
          <mxGeometry relative="1" as="geometry">
            <Array as="points">
              <mxPoint x="670" y="329" />
            </Array>
          </mxGeometry>
        </mxCell>
        <mxCell id="mCdKOWrKnVORWBAdiH5B-16" style="edgeStyle=orthogonalEdgeStyle;rounded=0;orthogonalLoop=1;jettySize=auto;html=1;exitX=0.5;exitY=0;exitDx=0;exitDy=0;exitPerimeter=0;entryX=1;entryY=0.25;entryDx=0;entryDy=0;" parent="WIyWlLk6GJQsqaUBKTNV-1" source="mCdKOWrKnVORWBAdiH5B-3" edge="1">
          <mxGeometry relative="1" as="geometry">
            <mxPoint x="610" y="191.25" as="targetPoint" />
            <Array as="points">
              <mxPoint x="670" y="191" />
            </Array>
          </mxGeometry>
        </mxCell>
        <mxCell id="mCdKOWrKnVORWBAdiH5B-3" value="How Many Neighbors?" style="strokeWidth=2;html=1;shape=mxgraph.flowchart.decision;whiteSpace=wrap;" parent="WIyWlLk6GJQsqaUBKTNV-1" vertex="1">
          <mxGeometry x="620" y="210" width="100" height="100" as="geometry" />
        </mxCell>
        <mxCell id="mCdKOWrKnVORWBAdiH5B-12" value="" style="edgeStyle=orthogonalEdgeStyle;rounded=0;orthogonalLoop=1;jettySize=auto;html=1;" parent="WIyWlLk6GJQsqaUBKTNV-1" target="2DCBrfgeh82kFmzNfcht-7" edge="1">
          <mxGeometry relative="1" as="geometry">
            <mxPoint x="510" y="218" as="sourcePoint" />
            <Array as="points">
              <mxPoint x="460" y="218" />
              <mxPoint x="460" y="265" />
            </Array>
          </mxGeometry>
        </mxCell>
        <mxCell id="mCdKOWrKnVORWBAdiH5B-11" value="" style="edgeStyle=orthogonalEdgeStyle;rounded=0;orthogonalLoop=1;jettySize=auto;html=1;" parent="WIyWlLk6GJQsqaUBKTNV-1" source="mCdKOWrKnVORWBAdiH5B-7" target="2DCBrfgeh82kFmzNfcht-7" edge="1">
          <mxGeometry relative="1" as="geometry">
            <Array as="points">
              <mxPoint x="460" y="310" />
              <mxPoint x="460" y="265" />
            </Array>
          </mxGeometry>
        </mxCell>
        <mxCell id="mCdKOWrKnVORWBAdiH5B-7" value="Mark Visited" style="rounded=1;whiteSpace=wrap;html=1;absoluteArcSize=1;arcSize=14;strokeWidth=2;" parent="WIyWlLk6GJQsqaUBKTNV-1" vertex="1">
          <mxGeometry x="510" y="272.5" width="100" height="75" as="geometry" />
        </mxCell>
        <mxCell id="mCdKOWrKnVORWBAdiH5B-9" value="0" style="text;html=1;align=center;verticalAlign=middle;resizable=0;points=[];autosize=1;strokeColor=none;fillColor=none;" parent="WIyWlLk6GJQsqaUBKTNV-1" vertex="1">
          <mxGeometry x="670" y="190" width="30" height="30" as="geometry" />
        </mxCell>
        <mxCell id="mCdKOWrKnVORWBAdiH5B-10" value="1-8" style="text;html=1;align=center;verticalAlign=middle;resizable=0;points=[];autosize=1;strokeColor=none;fillColor=none;" parent="WIyWlLk6GJQsqaUBKTNV-1" vertex="1">
          <mxGeometry x="665" y="305" width="40" height="30" as="geometry" />
        </mxCell>
        <mxCell id="mCdKOWrKnVORWBAdiH5B-13" style="edgeStyle=orthogonalEdgeStyle;rounded=0;orthogonalLoop=1;jettySize=auto;html=1;exitX=0.5;exitY=1;exitDx=0;exitDy=0;exitPerimeter=0;entryX=1;entryY=0.5;entryDx=0;entryDy=0;entryPerimeter=0;" parent="WIyWlLk6GJQsqaUBKTNV-1" source="2DCBrfgeh82kFmzNfcht-16" target="mCdKOWrKnVORWBAdiH5B-3" edge="1">
          <mxGeometry relative="1" as="geometry">
            <Array as="points">
              <mxPoint x="580" y="140" />
              <mxPoint x="780" y="140" />
              <mxPoint x="780" y="260" />
            </Array>
          </mxGeometry>
        </mxCell>
        <mxCell id="mCdKOWrKnVORWBAdiH5B-17" value="" style="verticalLabelPosition=bottom;verticalAlign=top;html=1;shape=process;whiteSpace=wrap;rounded=1;size=0.14;arcSize=6;" parent="WIyWlLk6GJQsqaUBKTNV-1" vertex="1">
          <mxGeometry x="510" y="175" width="100" height="60" as="geometry" />
        </mxCell>
        <mxCell id="mCdKOWrKnVORWBAdiH5B-18" value="FloodFill&lt;br&gt;(See Below)" style="text;html=1;align=center;verticalAlign=middle;resizable=0;points=[];autosize=1;strokeColor=none;fillColor=none;" parent="WIyWlLk6GJQsqaUBKTNV-1" vertex="1">
          <mxGeometry x="515" y="185" width="90" height="40" as="geometry" />
        </mxCell>
        <mxCell id="mCdKOWrKnVORWBAdiH5B-21" value="FloodFill" style="text;html=1;align=center;verticalAlign=middle;resizable=0;points=[];autosize=1;strokeColor=none;fillColor=none;fontSize=16;" parent="WIyWlLk6GJQsqaUBKTNV-1" vertex="1">
          <mxGeometry x="350" y="478" width="80" height="30" as="geometry" />
        </mxCell>
        <mxCell id="mCdKOWrKnVORWBAdiH5B-22" value="" style="rounded=1;whiteSpace=wrap;html=1;absoluteArcSize=1;arcSize=14;strokeWidth=2;" parent="WIyWlLk6GJQsqaUBKTNV-1" vertex="1">
          <mxGeometry x="80" y="520" width="680" height="360" as="geometry" />
        </mxCell>
        <mxCell id="mCdKOWrKnVORWBAdiH5B-28" value="" style="edgeStyle=orthogonalEdgeStyle;rounded=0;orthogonalLoop=1;jettySize=auto;html=1;" parent="WIyWlLk6GJQsqaUBKTNV-1" source="mCdKOWrKnVORWBAdiH5B-23" target="mCdKOWrKnVORWBAdiH5B-27" edge="1">
          <mxGeometry relative="1" as="geometry" />
        </mxCell>
        <mxCell id="mCdKOWrKnVORWBAdiH5B-23" value="START&lt;br&gt;(Selected Cell has 0 neighbors)" style="strokeWidth=2;html=1;shape=mxgraph.flowchart.start_1;whiteSpace=wrap;" parent="WIyWlLk6GJQsqaUBKTNV-1" vertex="1">
          <mxGeometry x="120" y="570" width="100" height="60" as="geometry" />
        </mxCell>
        <mxCell id="mCdKOWrKnVORWBAdiH5B-24" value="END&lt;br&gt;(just return)" style="strokeWidth=2;html=1;shape=mxgraph.flowchart.start_1;whiteSpace=wrap;" parent="WIyWlLk6GJQsqaUBKTNV-1" vertex="1">
          <mxGeometry x="610" y="570" width="100" height="60" as="geometry" />
        </mxCell>
        <mxCell id="mCdKOWrKnVORWBAdiH5B-44" style="edgeStyle=orthogonalEdgeStyle;rounded=0;orthogonalLoop=1;jettySize=auto;html=1;exitX=1;exitY=0.5;exitDx=0;exitDy=0;exitPerimeter=0;entryX=0;entryY=0.5;entryDx=0;entryDy=0;entryPerimeter=0;" parent="WIyWlLk6GJQsqaUBKTNV-1" source="mCdKOWrKnVORWBAdiH5B-25" target="mCdKOWrKnVORWBAdiH5B-24" edge="1">
          <mxGeometry relative="1" as="geometry" />
        </mxCell>
        <mxCell id="mCdKOWrKnVORWBAdiH5B-25" value="Does this&lt;br&gt;cell have 0 neighbors?" style="strokeWidth=2;html=1;shape=mxgraph.flowchart.decision;whiteSpace=wrap;" parent="WIyWlLk6GJQsqaUBKTNV-1" vertex="1">
          <mxGeometry x="390" y="540" width="120" height="120" as="geometry" />
        </mxCell>
        <mxCell id="mCdKOWrKnVORWBAdiH5B-29" value="" style="edgeStyle=orthogonalEdgeStyle;rounded=0;orthogonalLoop=1;jettySize=auto;html=1;" parent="WIyWlLk6GJQsqaUBKTNV-1" source="mCdKOWrKnVORWBAdiH5B-27" target="mCdKOWrKnVORWBAdiH5B-25" edge="1">
          <mxGeometry relative="1" as="geometry" />
        </mxCell>
        <mxCell id="mCdKOWrKnVORWBAdiH5B-27" value="Mark this cell as Visited" style="rounded=1;whiteSpace=wrap;html=1;absoluteArcSize=1;arcSize=14;strokeWidth=2;" parent="WIyWlLk6GJQsqaUBKTNV-1" vertex="1">
          <mxGeometry x="250" y="562.5" width="100" height="75" as="geometry" />
        </mxCell>
        <mxCell id="mCdKOWrKnVORWBAdiH5B-31" value="No" style="text;html=1;align=center;verticalAlign=middle;resizable=0;points=[];autosize=1;strokeColor=none;fillColor=none;" parent="WIyWlLk6GJQsqaUBKTNV-1" vertex="1">
          <mxGeometry x="510" y="570" width="40" height="30" as="geometry" />
        </mxCell>
        <mxCell id="mCdKOWrKnVORWBAdiH5B-32" value="Yes" style="text;html=1;align=center;verticalAlign=middle;resizable=0;points=[];autosize=1;strokeColor=none;fillColor=none;" parent="WIyWlLk6GJQsqaUBKTNV-1" vertex="1">
          <mxGeometry x="460" y="637.5" width="40" height="30" as="geometry" />
        </mxCell>
        <mxCell id="mCdKOWrKnVORWBAdiH5B-33" value="" style="rounded=1;whiteSpace=wrap;html=1;absoluteArcSize=1;arcSize=14;strokeWidth=2;" parent="WIyWlLk6GJQsqaUBKTNV-1" vertex="1">
          <mxGeometry x="130" y="680" width="440" height="170" as="geometry" />
        </mxCell>
        <mxCell id="mCdKOWrKnVORWBAdiH5B-35" style="edgeStyle=orthogonalEdgeStyle;rounded=0;orthogonalLoop=1;jettySize=auto;html=1;entryX=0.5;entryY=1;entryDx=0;entryDy=0;entryPerimeter=0;" parent="WIyWlLk6GJQsqaUBKTNV-1" source="mCdKOWrKnVORWBAdiH5B-34" target="mCdKOWrKnVORWBAdiH5B-23" edge="1">
          <mxGeometry relative="1" as="geometry" />
        </mxCell>
        <mxCell id="mCdKOWrKnVORWBAdiH5B-43" value="" style="edgeStyle=orthogonalEdgeStyle;rounded=0;orthogonalLoop=1;jettySize=auto;html=1;" parent="WIyWlLk6GJQsqaUBKTNV-1" source="mCdKOWrKnVORWBAdiH5B-34" target="mCdKOWrKnVORWBAdiH5B-42" edge="1">
          <mxGeometry relative="1" as="geometry" />
        </mxCell>
        <mxCell id="mCdKOWrKnVORWBAdiH5B-34" value="IsValid&lt;br&gt;&amp;amp;&amp;amp; !Live &amp;amp;&amp;amp;&lt;br&gt;!Visited" style="strokeWidth=2;html=1;shape=mxgraph.flowchart.decision;whiteSpace=wrap;" parent="WIyWlLk6GJQsqaUBKTNV-1" vertex="1">
          <mxGeometry x="295" y="715" width="100" height="100" as="geometry" />
        </mxCell>
        <mxCell id="mCdKOWrKnVORWBAdiH5B-37" value="For each of the 4 cells&lt;br&gt;above, below, and&lt;br&gt;beside this one..." style="text;html=1;align=center;verticalAlign=middle;resizable=0;points=[];autosize=1;strokeColor=none;fillColor=none;" parent="WIyWlLk6GJQsqaUBKTNV-1" vertex="1">
          <mxGeometry x="190" y="690" width="140" height="60" as="geometry" />
        </mxCell>
        <mxCell id="mCdKOWrKnVORWBAdiH5B-39" style="edgeStyle=orthogonalEdgeStyle;rounded=0;orthogonalLoop=1;jettySize=auto;html=1;exitX=0.5;exitY=1;exitDx=0;exitDy=0;exitPerimeter=0;entryX=0.5;entryY=0;entryDx=0;entryDy=0;entryPerimeter=0;" parent="WIyWlLk6GJQsqaUBKTNV-1" source="mCdKOWrKnVORWBAdiH5B-25" target="mCdKOWrKnVORWBAdiH5B-34" edge="1">
          <mxGeometry relative="1" as="geometry">
            <Array as="points">
              <mxPoint x="450" y="690" />
              <mxPoint x="345" y="690" />
            </Array>
          </mxGeometry>
        </mxCell>
        <mxCell id="mCdKOWrKnVORWBAdiH5B-40" value="Yes" style="text;html=1;align=center;verticalAlign=middle;resizable=0;points=[];autosize=1;strokeColor=none;fillColor=none;" parent="WIyWlLk6GJQsqaUBKTNV-1" vertex="1">
          <mxGeometry x="260" y="760" width="40" height="30" as="geometry" />
        </mxCell>
        <mxCell id="mCdKOWrKnVORWBAdiH5B-42" value="END&lt;br&gt;(do nothing)" style="strokeWidth=2;html=1;shape=mxgraph.flowchart.start_1;whiteSpace=wrap;" parent="WIyWlLk6GJQsqaUBKTNV-1" vertex="1">
          <mxGeometry x="440" y="735" width="100" height="60" as="geometry" />
        </mxCell>
        <mxCell id="mCdKOWrKnVORWBAdiH5B-45" value="No" style="text;html=1;align=center;verticalAlign=middle;resizable=0;points=[];autosize=1;strokeColor=none;fillColor=none;" parent="WIyWlLk6GJQsqaUBKTNV-1" vertex="1">
          <mxGeometry x="390" y="760" width="40" height="30" as="geometry" />
        </mxCell>
      </root>
    </mxGraphModel>
  </diagram>
</mxfile>
